<svg width="239" height="33" viewBox="0 0 239 33" fill="none" xmlns="http://www.w3.org/2000/svg">
<path d="M73.534 25.286C72.8813 25.286 72.2103 25.231 71.521 25.121C70.839 25.0183 70.1973 24.8827 69.596 24.714C69.002 24.5453 68.518 24.3693 68.144 24.186L68.408 21.007C68.914 21.293 69.442 21.5387 69.992 21.744C70.5493 21.942 71.103 22.096 71.653 22.206C72.2103 22.316 72.742 22.371 73.248 22.371C73.754 22.371 74.194 22.3087 74.568 22.184C74.942 22.0593 75.2317 21.8723 75.437 21.623C75.6423 21.3663 75.745 21.0363 75.745 20.633C75.745 20.2223 75.6093 19.885 75.338 19.621C75.074 19.3497 74.6927 19.115 74.194 18.917C73.6953 18.7117 73.1013 18.51 72.412 18.312C71.4587 18.0333 70.6447 17.7107 69.97 17.344C69.2953 16.97 68.7783 16.4933 68.419 15.914C68.067 15.3273 67.891 14.5757 67.891 13.659C67.891 12.7423 68.0927 11.9357 68.496 11.239C68.8993 10.535 69.508 9.985 70.322 9.589C71.136 9.193 72.1663 8.995 73.413 8.995C73.9043 8.995 74.3957 9.028 74.887 9.094C75.3783 9.15267 75.855 9.23333 76.317 9.336C76.7863 9.43867 77.219 9.556 77.615 9.688C78.011 9.82 78.3557 9.95933 78.649 10.106L78.374 13.296C77.9047 13.0027 77.417 12.757 76.911 12.559C76.405 12.361 75.91 12.2107 75.426 12.108C74.942 12.0053 74.502 11.954 74.106 11.954C73.6587 11.954 73.2517 12.0127 72.885 12.13C72.5257 12.2473 72.2397 12.427 72.027 12.669C71.8143 12.911 71.708 13.2153 71.708 13.582C71.708 13.9413 71.807 14.2457 72.005 14.495C72.2103 14.737 72.522 14.9533 72.94 15.144C73.3653 15.3273 73.9117 15.518 74.579 15.716C75.833 16.09 76.823 16.4823 77.549 16.893C78.275 17.2963 78.7883 17.784 79.089 18.356C79.397 18.928 79.551 19.6467 79.551 20.512C79.551 21.4727 79.342 22.3123 78.924 23.031C78.506 23.7423 77.8533 24.296 76.966 24.692C76.0787 25.088 74.9347 25.286 73.534 25.286ZM86.048 25.297C85.234 25.297 84.5374 25.176 83.958 24.934C83.386 24.6847 82.946 24.2887 82.638 23.746C82.3374 23.2033 82.187 22.4883 82.187 21.601C82.187 21.1243 82.187 20.6367 82.187 20.138C82.187 19.632 82.187 19.104 82.187 18.554C82.187 18.004 82.187 17.4247 82.187 16.816C82.187 16.2073 82.187 15.551 82.187 14.847C82.187 14.0183 82.187 13.2593 82.187 12.57C82.187 11.8807 82.187 11.1767 82.187 10.458L85.421 9.875C85.421 10.447 85.421 10.9897 85.421 11.503C85.421 12.009 85.421 12.5333 85.421 13.076C85.421 13.6113 85.421 14.2017 85.421 14.847V20.567C85.421 21.2343 85.542 21.744 85.784 22.096C86.0334 22.4407 86.4367 22.613 86.994 22.613C87.2287 22.613 87.4854 22.5727 87.764 22.492C88.0427 22.404 88.3104 22.2683 88.567 22.085L88.754 24.747C88.5634 24.8643 88.3214 24.9633 88.028 25.044C87.7347 25.1247 87.4157 25.187 87.071 25.231C86.7264 25.275 86.3854 25.297 86.048 25.297ZM80.405 16.497V14.022H88.699V16.497C88.0097 16.497 87.3167 16.497 86.62 16.497C85.9307 16.497 85.2634 16.497 84.618 16.497H83.155H80.405ZM93.2388 25.264C92.6081 25.264 92.0581 25.132 91.5888 24.868C91.1194 24.604 90.7528 24.2337 90.4888 23.757C90.2248 23.273 90.0928 22.701 90.0928 22.041C90.0928 21.4177 90.2028 20.897 90.4228 20.479C90.6428 20.0537 90.9251 19.709 91.2698 19.445C91.6218 19.181 92.0031 18.9793 92.4138 18.84C92.8318 18.7007 93.2388 18.598 93.6348 18.532L96.6928 18.059C96.7074 17.6337 96.6268 17.3037 96.4508 17.069C96.2748 16.827 96.0181 16.6583 95.6808 16.563C95.3508 16.4677 94.9548 16.42 94.4928 16.42C94.2434 16.42 93.9721 16.442 93.6788 16.486C93.3854 16.5227 93.0774 16.5813 92.7548 16.662C92.4394 16.7427 92.1094 16.8417 91.7648 16.959C91.4274 17.0763 91.0864 17.2193 90.7418 17.388L90.5878 14.583C90.8591 14.4877 91.1708 14.3887 91.5228 14.286C91.8748 14.1833 92.2561 14.0917 92.6668 14.011C93.0774 13.923 93.5101 13.8533 93.9648 13.802C94.4268 13.7507 94.8998 13.725 95.3838 13.725C96.3004 13.725 97.0814 13.8607 97.7268 14.132C98.3794 14.396 98.8781 14.814 99.2228 15.386C99.5674 15.958 99.7398 16.706 99.7398 17.63C99.7398 17.9893 99.7398 18.4293 99.7398 18.95C99.7398 19.4707 99.7398 19.9363 99.7398 20.347V21.392C99.7398 21.9493 99.7398 22.525 99.7398 23.119C99.7398 23.7057 99.7398 24.3327 99.7398 25H96.9348L96.7258 23.537H96.4728C96.2748 23.8157 96.0254 24.0907 95.7248 24.362C95.4241 24.626 95.0648 24.8423 94.6468 25.011C94.2361 25.1797 93.7668 25.264 93.2388 25.264ZM94.5478 22.723C94.8044 22.723 95.0611 22.6643 95.3178 22.547C95.5744 22.4223 95.8128 22.25 96.0328 22.03C96.2528 21.8027 96.4434 21.535 96.6048 21.227V19.544C96.5168 19.61 96.4031 19.6723 96.2638 19.731C96.1318 19.7823 95.9338 19.841 95.6698 19.907C95.4131 19.9657 95.0538 20.0427 94.5918 20.138C94.3278 20.1893 94.1004 20.2773 93.9098 20.402C93.7191 20.5267 93.5688 20.688 93.4588 20.886C93.3561 21.0767 93.3048 21.304 93.3048 21.568C93.3048 21.986 93.4294 22.283 93.6788 22.459C93.9354 22.635 94.2251 22.723 94.5478 22.723ZM102.255 25C102.255 24.2153 102.255 23.4563 102.255 22.723C102.255 21.9823 102.255 21.1573 102.255 20.248V19.148C102.255 18.3047 102.255 17.4577 102.255 16.607C102.255 15.7563 102.255 14.8947 102.255 14.022L105.016 13.857L105.159 15.881H105.434C105.72 15.287 106.036 14.836 106.38 14.528C106.725 14.2127 107.077 14 107.436 13.89C107.796 13.78 108.14 13.725 108.47 13.725C108.639 13.725 108.826 13.7397 109.031 13.769C109.244 13.7983 109.442 13.8497 109.625 13.923L109.339 17.113C109.053 17.091 108.797 17.0727 108.569 17.058C108.342 17.0433 108.1 17.036 107.843 17.036C107.638 17.036 107.425 17.058 107.205 17.102C106.993 17.146 106.784 17.234 106.578 17.366C106.373 17.498 106.182 17.6813 106.006 17.916C105.83 18.1507 105.676 18.455 105.544 18.829V20.424C105.544 21.2453 105.544 22.019 105.544 22.745C105.544 23.4637 105.544 24.2153 105.544 25H102.255ZM116.019 25.297C115.205 25.297 114.508 25.176 113.929 24.934C113.357 24.6847 112.917 24.2887 112.609 23.746C112.308 23.2033 112.158 22.4883 112.158 21.601C112.158 21.1243 112.158 20.6367 112.158 20.138C112.158 19.632 112.158 19.104 112.158 18.554C112.158 18.004 112.158 17.4247 112.158 16.816C112.158 16.2073 112.158 15.551 112.158 14.847C112.158 14.0183 112.158 13.2593 112.158 12.57C112.158 11.8807 112.158 11.1767 112.158 10.458L115.392 9.875C115.392 10.447 115.392 10.9897 115.392 11.503C115.392 12.009 115.392 12.5333 115.392 13.076C115.392 13.6113 115.392 14.2017 115.392 14.847V20.567C115.392 21.2343 115.513 21.744 115.755 22.096C116.004 22.4407 116.407 22.613 116.965 22.613C117.199 22.613 117.456 22.5727 117.735 22.492C118.013 22.404 118.281 22.2683 118.538 22.085L118.725 24.747C118.534 24.8643 118.292 24.9633 117.999 25.044C117.705 25.1247 117.386 25.187 117.042 25.231C116.697 25.275 116.356 25.297 116.019 25.297ZM110.376 16.497V14.022H118.67V16.497C117.98 16.497 117.287 16.497 116.591 16.497C115.901 16.497 115.234 16.497 114.589 16.497H113.126H110.376ZM126.039 25.286C124.623 25.286 123.465 25.0367 122.563 24.538C121.668 24.0393 121.008 23.3537 120.583 22.481C120.165 21.6083 119.956 20.6073 119.956 19.478C119.956 18.3487 120.154 17.3513 120.55 16.486C120.946 15.6207 121.536 14.946 122.321 14.462C123.113 13.9707 124.095 13.725 125.269 13.725C126.266 13.725 127.12 13.9047 127.832 14.264C128.543 14.616 129.089 15.1513 129.471 15.87C129.852 16.5887 130.043 17.4943 130.043 18.587C130.043 18.8803 130.035 19.1407 130.021 19.368C130.006 19.5953 129.98 19.8227 129.944 20.05L127.128 18.983C127.142 18.8877 127.153 18.7887 127.161 18.686C127.168 18.5833 127.172 18.488 127.172 18.4C127.172 17.6593 126.996 17.08 126.644 16.662C126.299 16.2367 125.852 16.024 125.302 16.024C124.884 16.024 124.513 16.1487 124.191 16.398C123.868 16.64 123.615 16.981 123.432 17.421C123.248 17.861 123.157 18.3853 123.157 18.994V19.533C123.157 20.171 123.27 20.7173 123.498 21.172C123.732 21.6267 124.092 21.975 124.576 22.217C125.06 22.459 125.679 22.58 126.435 22.58C126.728 22.58 127.065 22.5543 127.447 22.503C127.835 22.4443 128.228 22.36 128.624 22.25C129.027 22.1327 129.401 21.986 129.746 21.81L129.856 24.582C129.57 24.714 129.236 24.835 128.855 24.945C128.481 25.0477 128.055 25.1283 127.579 25.187C127.102 25.253 126.589 25.286 126.039 25.286ZM121.221 20.05V18.29L128.03 18.147L129.944 18.686V20.05H121.221ZM132.119 25C132.119 24.2153 132.119 23.4563 132.119 22.723C132.119 21.9823 132.119 21.1573 132.119 20.248V19.148C132.119 18.3047 132.119 17.4577 132.119 16.607C132.119 15.7563 132.119 14.8947 132.119 14.022L134.88 13.857L135.023 15.881H135.298C135.584 15.287 135.899 14.836 136.244 14.528C136.588 14.2127 136.94 14 137.3 13.89C137.659 13.78 138.004 13.725 138.334 13.725C138.502 13.725 138.689 13.7397 138.895 13.769C139.107 13.7983 139.305 13.8497 139.489 13.923L139.203 17.113C138.917 17.091 138.66 17.0727 138.433 17.058C138.205 17.0433 137.963 17.036 137.707 17.036C137.501 17.036 137.289 17.058 137.069 17.102C136.856 17.146 136.647 17.234 136.442 17.366C136.236 17.498 136.046 17.6813 135.87 17.916C135.694 18.1507 135.54 18.455 135.408 18.829V20.424C135.408 21.2453 135.408 22.019 135.408 22.745C135.408 23.4637 135.408 24.2153 135.408 25H132.119ZM149.345 25C149.345 24.1567 149.345 23.339 149.345 22.547C149.345 21.755 149.345 20.8677 149.345 19.885V15.133C149.345 14.121 149.345 13.208 149.345 12.394C149.345 11.58 149.345 10.744 149.345 9.886L150.709 12.471H148.63C147.801 12.471 147.068 12.471 146.43 12.471C145.792 12.471 145.183 12.471 144.604 12.471V9.314H157.683V12.471C157.111 12.471 156.506 12.471 155.868 12.471C155.23 12.471 154.493 12.471 153.657 12.471H151.578L152.953 9.886C152.953 10.744 152.953 11.58 152.953 12.394C152.953 13.208 152.953 14.121 152.953 15.133V19.885C152.953 20.8677 152.953 21.755 152.953 22.547C152.953 23.339 152.953 24.1567 152.953 25H149.345ZM163.464 25.286C162.049 25.286 160.89 25.0367 159.988 24.538C159.094 24.0393 158.434 23.3537 158.008 22.481C157.59 21.6083 157.381 20.6073 157.381 19.478C157.381 18.3487 157.579 17.3513 157.975 16.486C158.371 15.6207 158.962 14.946 159.746 14.462C160.538 13.9707 161.521 13.725 162.694 13.725C163.692 13.725 164.546 13.9047 165.257 14.264C165.969 14.616 166.515 15.1513 166.896 15.87C167.278 16.5887 167.468 17.4943 167.468 18.587C167.468 18.8803 167.461 19.1407 167.446 19.368C167.432 19.5953 167.406 19.8227 167.369 20.05L164.553 18.983C164.568 18.8877 164.579 18.7887 164.586 18.686C164.594 18.5833 164.597 18.488 164.597 18.4C164.597 17.6593 164.421 17.08 164.069 16.662C163.725 16.2367 163.277 16.024 162.727 16.024C162.309 16.024 161.939 16.1487 161.616 16.398C161.294 16.64 161.041 16.981 160.857 17.421C160.674 17.861 160.582 18.3853 160.582 18.994V19.533C160.582 20.171 160.696 20.7173 160.923 21.172C161.158 21.6267 161.517 21.975 162.001 22.217C162.485 22.459 163.105 22.58 163.86 22.58C164.154 22.58 164.491 22.5543 164.872 22.503C165.261 22.4443 165.653 22.36 166.049 22.25C166.453 22.1327 166.827 21.986 167.171 21.81L167.281 24.582C166.995 24.714 166.662 24.835 166.28 24.945C165.906 25.0477 165.481 25.1283 165.004 25.187C164.528 25.253 164.014 25.286 163.464 25.286ZM158.646 20.05V18.29L165.455 18.147L167.369 18.686V20.05H158.646ZM169.544 25C169.544 24.2153 169.544 23.4563 169.544 22.723C169.544 21.9823 169.544 21.1573 169.544 20.248V19.148C169.544 18.3047 169.544 17.4577 169.544 16.607C169.544 15.7563 169.544 14.8947 169.544 14.022L172.305 13.857L172.448 15.76H172.723C172.973 15.408 173.266 15.078 173.603 14.77C173.941 14.4547 174.329 14.2017 174.769 14.011C175.217 13.8203 175.723 13.725 176.287 13.725C177.131 13.725 177.783 13.9377 178.245 14.363C178.715 14.781 179.03 15.386 179.191 16.178L179.411 16.211C179.455 16.4237 179.488 16.6473 179.51 16.882C179.54 17.1093 179.554 17.3513 179.554 17.608C179.554 18.092 179.554 18.543 179.554 18.961C179.554 19.3717 179.554 19.8007 179.554 20.248C179.554 21.1427 179.554 21.964 179.554 22.712C179.554 23.4527 179.554 24.2153 179.554 25H176.265C176.265 24.2153 176.265 23.4563 176.265 22.723C176.265 21.9897 176.265 21.2233 176.265 20.424V18.664C176.265 18.0187 176.163 17.5347 175.957 17.212C175.759 16.882 175.404 16.717 174.89 16.717C174.59 16.717 174.315 16.783 174.065 16.915C173.816 17.047 173.589 17.223 173.383 17.443C173.178 17.6557 172.995 17.8903 172.833 18.147V20.424C172.833 21.2453 172.833 22.019 172.833 22.745C172.833 23.4637 172.833 24.2153 172.833 25H169.544ZM182.942 25C182.942 24.2153 182.942 23.4563 182.942 22.723C182.942 21.9897 182.942 21.2233 182.942 20.424V18.664C182.942 18.0187 182.843 17.5347 182.645 17.212C182.447 16.882 182.088 16.717 181.567 16.717C181.267 16.717 180.992 16.783 180.742 16.915C180.493 17.0397 180.262 17.212 180.049 17.432C179.844 17.6447 179.661 17.883 179.499 18.147L179.004 15.782H179.29C179.554 15.4227 179.862 15.0853 180.214 14.77C180.566 14.4547 180.97 14.2017 181.424 14.011C181.886 13.8203 182.403 13.725 182.975 13.725C184.068 13.725 184.882 14.055 185.417 14.715C185.96 15.3677 186.231 16.332 186.231 17.608C186.231 18.092 186.231 18.543 186.231 18.961C186.231 19.3717 186.231 19.8007 186.231 20.248C186.231 21.1427 186.231 21.964 186.231 22.712C186.231 23.4527 186.231 24.2153 186.231 25H182.942ZM188.73 29.323C188.73 28.5383 188.73 27.761 188.73 26.991C188.73 26.221 188.73 25.3813 188.73 24.472V19.148C188.73 18.3047 188.73 17.4577 188.73 16.607C188.73 15.7563 188.73 14.8947 188.73 14.022L191.645 13.857L191.744 15.364H192.008C192.228 15.0193 192.492 14.726 192.8 14.484C193.115 14.2347 193.471 14.0477 193.867 13.923C194.263 13.791 194.699 13.725 195.176 13.725C196.144 13.725 196.958 13.978 197.618 14.484C198.278 14.99 198.777 15.6793 199.114 16.552C199.451 17.4247 199.62 18.4073 199.62 19.5C199.62 20.5193 199.459 21.469 199.136 22.349C198.821 23.229 198.337 23.9403 197.684 24.483C197.031 25.0257 196.206 25.297 195.209 25.297C194.762 25.297 194.355 25.2347 193.988 25.11C193.629 24.9927 193.302 24.824 193.009 24.604C192.716 24.384 192.452 24.12 192.217 23.812H192.019V24.648C192.019 25.4693 192.019 26.2393 192.019 26.958C192.019 27.684 192.019 28.4393 192.019 29.224L188.73 29.323ZM193.966 22.503C194.487 22.503 194.916 22.36 195.253 22.074C195.598 21.788 195.851 21.4213 196.012 20.974C196.173 20.5193 196.254 20.0353 196.254 19.522C196.254 18.9867 196.17 18.4953 196.001 18.048C195.832 17.5933 195.576 17.2303 195.231 16.959C194.894 16.6877 194.465 16.552 193.944 16.552C193.687 16.552 193.438 16.5923 193.196 16.673C192.961 16.7463 192.741 16.8563 192.536 17.003C192.338 17.1497 192.166 17.3257 192.019 17.531V21.271C192.151 21.5203 192.309 21.7367 192.492 21.92C192.675 22.1033 192.888 22.2463 193.13 22.349C193.379 22.4517 193.658 22.503 193.966 22.503ZM201.749 25C201.749 24.2153 201.749 23.4563 201.749 22.723C201.749 21.9823 201.749 21.1573 201.749 20.248V14.143C201.749 13.2483 201.749 12.3647 201.749 11.492C201.749 10.612 201.749 9.73933 201.749 8.874L205.038 8.588C205.038 9.45333 205.038 10.3443 205.038 11.261C205.038 12.1703 205.038 13.131 205.038 14.143V20.248C205.038 21.1573 205.038 21.9823 205.038 22.723C205.038 23.4563 205.038 24.2153 205.038 25H201.749ZM210.329 25.264C209.698 25.264 209.148 25.132 208.679 24.868C208.209 24.604 207.843 24.2337 207.579 23.757C207.315 23.273 207.183 22.701 207.183 22.041C207.183 21.4177 207.293 20.897 207.513 20.479C207.733 20.0537 208.015 19.709 208.36 19.445C208.712 19.181 209.093 18.9793 209.504 18.84C209.922 18.7007 210.329 18.598 210.725 18.532L213.783 18.059C213.797 17.6337 213.717 17.3037 213.541 17.069C213.365 16.827 213.108 16.6583 212.771 16.563C212.441 16.4677 212.045 16.42 211.583 16.42C211.333 16.42 211.062 16.442 210.769 16.486C210.475 16.5227 210.167 16.5813 209.845 16.662C209.529 16.7427 209.199 16.8417 208.855 16.959C208.517 17.0763 208.176 17.2193 207.832 17.388L207.678 14.583C207.949 14.4877 208.261 14.3887 208.613 14.286C208.965 14.1833 209.346 14.0917 209.757 14.011C210.167 13.923 210.6 13.8533 211.055 13.802C211.517 13.7507 211.99 13.725 212.474 13.725C213.39 13.725 214.171 13.8607 214.817 14.132C215.469 14.396 215.968 14.814 216.313 15.386C216.657 15.958 216.83 16.706 216.83 17.63C216.83 17.9893 216.83 18.4293 216.83 18.95C216.83 19.4707 216.83 19.9363 216.83 20.347V21.392C216.83 21.9493 216.83 22.525 216.83 23.119C216.83 23.7057 216.83 24.3327 216.83 25H214.025L213.816 23.537H213.563C213.365 23.8157 213.115 24.0907 212.815 24.362C212.514 24.626 212.155 24.8423 211.737 25.011C211.326 25.1797 210.857 25.264 210.329 25.264ZM211.638 22.723C211.894 22.723 212.151 22.6643 212.408 22.547C212.664 22.4223 212.903 22.25 213.123 22.03C213.343 21.8027 213.533 21.535 213.695 21.227V19.544C213.607 19.61 213.493 19.6723 213.354 19.731C213.222 19.7823 213.024 19.841 212.76 19.907C212.503 19.9657 212.144 20.0427 211.682 20.138C211.418 20.1893 211.19 20.2773 211 20.402C210.809 20.5267 210.659 20.688 210.549 20.886C210.446 21.0767 210.395 21.304 210.395 21.568C210.395 21.986 210.519 22.283 210.769 22.459C211.025 22.635 211.315 22.723 211.638 22.723ZM224.042 25.297C223.228 25.297 222.532 25.176 221.952 24.934C221.38 24.6847 220.94 24.2887 220.632 23.746C220.332 23.2033 220.181 22.4883 220.181 21.601C220.181 21.1243 220.181 20.6367 220.181 20.138C220.181 19.632 220.181 19.104 220.181 18.554C220.181 18.004 220.181 17.4247 220.181 16.816C220.181 16.2073 220.181 15.551 220.181 14.847C220.181 14.0183 220.181 13.2593 220.181 12.57C220.181 11.8807 220.181 11.1767 220.181 10.458L223.415 9.875C223.415 10.447 223.415 10.9897 223.415 11.503C223.415 12.009 223.415 12.5333 223.415 13.076C223.415 13.6113 223.415 14.2017 223.415 14.847V20.567C223.415 21.2343 223.536 21.744 223.778 22.096C224.028 22.4407 224.431 22.613 224.988 22.613C225.223 22.613 225.48 22.5727 225.758 22.492C226.037 22.404 226.305 22.2683 226.561 22.085L226.748 24.747C226.558 24.8643 226.316 24.9633 226.022 25.044C225.729 25.1247 225.41 25.187 225.065 25.231C224.721 25.275 224.38 25.297 224.042 25.297ZM218.399 16.497V14.022H226.693V16.497C226.004 16.497 225.311 16.497 224.614 16.497C223.925 16.497 223.258 16.497 222.612 16.497H221.149H218.399ZM234.062 25.286C232.647 25.286 231.488 25.0367 230.586 24.538C229.691 24.0393 229.031 23.3537 228.606 22.481C228.188 21.6083 227.979 20.6073 227.979 19.478C227.979 18.3487 228.177 17.3513 228.573 16.486C228.969 15.6207 229.559 14.946 230.344 14.462C231.136 13.9707 232.119 13.725 233.292 13.725C234.289 13.725 235.144 13.9047 235.855 14.264C236.566 14.616 237.113 15.1513 237.494 15.87C237.875 16.5887 238.066 17.4943 238.066 18.587C238.066 18.8803 238.059 19.1407 238.044 19.368C238.029 19.5953 238.004 19.8227 237.967 20.05L235.151 18.983C235.166 18.8877 235.177 18.7887 235.184 18.686C235.191 18.5833 235.195 18.488 235.195 18.4C235.195 17.6593 235.019 17.08 234.667 16.662C234.322 16.2367 233.875 16.024 233.325 16.024C232.907 16.024 232.537 16.1487 232.214 16.398C231.891 16.64 231.638 16.981 231.455 17.421C231.272 17.861 231.18 18.3853 231.18 18.994V19.533C231.18 20.171 231.294 20.7173 231.521 21.172C231.756 21.6267 232.115 21.975 232.599 22.217C233.083 22.459 233.703 22.58 234.458 22.58C234.751 22.58 235.089 22.5543 235.47 22.503C235.859 22.4443 236.251 22.36 236.647 22.25C237.05 22.1327 237.424 21.986 237.769 21.81L237.879 24.582C237.593 24.714 237.259 24.835 236.878 24.945C236.504 25.0477 236.079 25.1283 235.602 25.187C235.125 25.253 234.612 25.286 234.062 25.286ZM229.244 20.05V18.29L236.053 18.147L237.967 18.686V20.05H229.244Z" fill="#000000"/>
<path fill-rule="evenodd" clip-rule="evenodd" d="M16 27.7852C21.9565 27.7852 26.7852 22.9565 26.7852 17C26.7852 11.0435 21.9565 6.21481 16 6.21481C10.0435 6.21481 5.21481 11.0435 5.21481 17C5.21481 22.9565 10.0435 27.7852 16 27.7852ZM16 33C24.8366 33 32 25.8366 32 17C32 8.16344 24.8366 1 16 1C7.16344 1 0 8.16344 0 17C0 25.8366 7.16344 33 16 33Z" fill="#000000"/>
<path d="M19.7533 17.2711C19.7533 19.368 18.0535 21.0678 15.9566 21.0678C13.8598 21.0678 12.16 19.368 12.16 17.2711C12.16 15.1743 13.8598 13.4745 15.9566 13.4745C18.0535 13.4745 19.7533 15.1743 19.7533 17.2711Z" fill="#000000"/>
</svg>
